<?xml version="1.0" standalone="no"?>
<!DOCTYPE svg PUBLIC "-//W3C//DTD SVG 20010904//EN"
 "http://www.w3.org/TR/2001/REC-SVG-20010904/DTD/svg10.dtd">
<svg version="1.0" xmlns="http://www.w3.org/2000/svg"
 width="130.000000pt" height="130.000000pt" viewBox="0 0 130.000000 130.000000"
 preserveAspectRatio="xMidYMid meet">
<metadata>
Created by potrace 1.11, written by Peter Selinger 2001-2013
</metadata>
<g transform="translate(0.000000,130.000000) scale(0.100000,-0.100000)"
fill="#000000" stroke="none">
<path d="M820 1124 c-14 -2 -59 -9 -100 -15 -138 -20 -282 -58 -316 -84 -33
-25 -104 -152 -104 -185 0 -10 6 -23 14 -29 14 -11 47 -4 206 45 25 8 -10 24
-55 24 -112 1 90 51 366 90 78 11 104 8 113 -16 8 -21 -36 -115 -100 -211
l-55 -83 -57 0 c-31 0 -99 -10 -151 -22 -86 -21 -95 -25 -109 -54 -28 -60 -16
-67 105 -59 l106 7 -19 -24 c-86 -108 -109 -129 -153 -140 -81 -20 -197 -156
-163 -190 28 -28 121 31 262 169 58 56 121 122 140 147 33 42 38 45 82 46 46
0 48 2 88 58 l41 57 -45 3 -46 3 39 57 c21 31 59 95 84 142 116 214 99 272
-75 269 -40 -1 -84 -3 -98 -5z"/>
</g>
</svg>
